HIERARCHY
ROOT hip
{
	OFFSET 0.000000 0.000000 0.000000 
	CHANNELS 6 Xposition Yposition Zposition Xrotation Zrotation Yrotation
	JOINT abdomen
	{
		OFFSET 0.000000 3.402643 0.000000 
		CHANNELS 3 Xrotation Zrotation Yrotation
		JOINT chest
		{
			OFFSET 0.000000 8.438565 -0.680529 
			CHANNELS 3 Xrotation Zrotation Yrotation
			JOINT neck
			{
				OFFSET 0.000000 10.207942 -0.272212 
				CHANNELS 3 Xrotation Zrotation Yrotation
				JOINT head
				{
					OFFSET 0.000000 3.130431 0.000000 
					CHANNELS 3 Xrotation Zrotation Yrotation
					End Site
					{
						OFFSET 0.000000 3.130435 0.000000 
					}
				}
			}
			JOINT lCollar
			{
				OFFSET 3.470700 6.669187 -0.816635 
				CHANNELS 3 Yrotation Zrotation Xrotation
				JOINT lShldr
				{
					OFFSET 3.198488 0.000000 0.000000 
					CHANNELS 3 Zrotation Yrotation Xrotation
					JOINT lForeArm
					{
						OFFSET 10.139888 0.000000 0.000000 
						CHANNELS 3 Yrotation Zrotation Xrotation
						JOINT lHand
						{
							OFFSET 8.370511 0.000000 0.000000 
							CHANNELS 3 Zrotation Yrotation Xrotation
							End Site
							{
								OFFSET 4.083176 0.000000 0.000000 
							}
						}
					}
				}
			}
			JOINT rCollar
			{
				OFFSET -3.470700 6.669187 -0.816635 
				CHANNELS 3 Yrotation Zrotation Xrotation
				JOINT rShldr
				{
					OFFSET -3.198488 0.000000 0.000000 
					CHANNELS 3 Zrotation Yrotation Xrotation
					JOINT rForeArm
					{
						OFFSET -10.139888 0.000000 0.000000 
						CHANNELS 3 Yrotation Zrotation Xrotation
						JOINT rHand
						{
							OFFSET -8.370511 0.000000 0.000000 
							CHANNELS 3 Zrotation Yrotation Xrotation
							End Site
							{
								OFFSET -4.083176 0.000000 0.000000 
							}
						}
					}
				}
			}
		}
	}
	JOINT lThigh
	{
		OFFSET 5.308129 -1.633274 1.361059 
		CHANNELS 3 Xrotation Zrotation Yrotation
		JOINT lShin
		{
			OFFSET -2.041588 -20.007561 0.000000 
			CHANNELS 3 Xrotation Zrotation Yrotation
			JOINT lFoot
			{
				OFFSET 0.000000 -19.190928 -1.224953 
				CHANNELS 3 Xrotation Yrotation Zrotation
				End Site
				{
					OFFSET 0.000000 -2.449906 4.627600 
				}
			}
		}
	}
	JOINT rThigh
	{
		OFFSET -5.308129 -1.633274 1.361059 
		CHANNELS 3 Xrotation Zrotation Yrotation
		JOINT rShin
		{
			OFFSET 2.041588 -20.007561 0.000000 
			CHANNELS 3 Xrotation Zrotation Yrotation
			JOINT rFoot
			{
				OFFSET 0.000000 -19.190928 -1.224953 
				CHANNELS 3 Xrotation Yrotation Zrotation
				End Site
				{
					OFFSET 0.000000 -2.449906 4.627600 
				}
			}
		}
	}
}
MOTION
Frames: 6
Frame Time: 0.011111
35.822472 41.285145 -58.238949 14.391595 -8.047626 20.387028 57.453030 -3.153335 2.401066 -26.080336 -2.222488 1.365763 -2.630313 11.994018 8.078606 -34.083511 -26.918005 27.527290 -1.931697 -12.150426 0.122601 -49.231544 -9.965862 8.332815 -86.338074 1.397450 30.583391 8.524705 12.647240 -20.149794 4.400109 13.372850 -0.765886 43.874413 19.586655 15.982800 91.238258 -6.675323 35.913250 -8.534408 -12.637552 97.855331 -80.878304 27.851360 -19.394039 60.619308 -2.643826 -8.218000 -14.849528 -8.973018 -5.617650 -42.264488 -35.867821 -10.355720 74.251373 0.958050 9.147685 -44.232601 -0.401478 -1.731049 
35.946270 41.230984 -58.178905 14.826968 -8.302211 20.238821 57.758537 -3.439922 2.268380 -25.777599 -2.265177 1.396323 -2.754969 11.910278 8.008357 -35.096066 -26.652544 27.645117 -1.931697 -12.150426 0.122601 -50.188168 -9.878973 9.283186 -86.229164 1.255439 29.847681 8.524705 12.647240 -20.589245 4.400109 13.372850 -0.765886 45.498238 18.070595 17.403368 90.366432 -6.079220 35.377121 -8.534408 -12.637552 97.816269 -81.707039 27.899233 -19.420282 61.303726 -2.559092 -8.263400 -15.709080 -8.011693 -5.389735 -42.655510 -36.073299 -10.507961 74.251373 0.958051 9.147689 -44.232395 0.138276 -1.266847 
36.081829 41.181461 -58.090073 15.265741 -8.487203 20.320435 57.930733 -3.701759 2.106744 -25.396408 -2.253366 1.399132 -2.627072 11.715599 7.944158 -36.125038 -26.179602 27.618954 -1.931697 -12.150426 0.122601 -50.914879 -9.939115 10.414241 -86.069389 1.404217 28.857538 8.524705 12.647240 -21.604872 4.400109 13.372850 -0.765886 47.095261 16.339842 18.575060 89.579300 -5.476118 34.862602 -8.534408 -12.637552 97.845558 -82.472595 27.733669 -19.449965 62.026157 -2.487699 -8.337006 -16.398979 -7.081001 -5.159637 -42.778492 -36.420177 -10.781209 74.164841 0.996499 9.131123 -44.360439 1.089008 -0.481194 
36.234726 41.101917 -57.995365 15.705791 -8.780616 20.227695 58.480911 -3.280946 0.907709 -25.003469 -1.749586 1.042184 -3.826099 10.084449 8.413054 -36.035301 -24.479858 28.020460 -1.931697 -12.150426 0.122601 -53.034359 -10.177025 9.369487 -85.731873 1.952757 27.777506 8.524705 12.647240 -22.796274 4.400109 13.372850 -0.765886 47.471542 15.808005 21.456671 88.682007 -4.678793 34.195335 -8.534408 -12.637552 98.470566 -83.329071 27.880720 -19.377539 62.739582 -2.418277 -8.381707 -17.182047 -5.953440 -4.823386 -43.082321 -36.528847 -10.845572 74.067574 1.006227 9.121769 -44.384747 1.463266 -0.144822 
36.399380 41.043732 -57.899109 15.923329 -9.250586 20.123600 58.472500 -3.889147 1.937689 -25.084520 -2.406296 1.407569 -2.710465 11.082847 7.961249 -37.085094 -25.192516 27.536726 -1.931697 -12.150426 0.122601 -52.212929 -9.838377 11.708567 -85.020828 2.887328 26.548975 8.524705 12.647240 -24.036510 4.400109 13.372850 -0.765886 49.688602 13.351118 21.212437 88.093857 -4.076277 33.704418 -8.534408 -12.637552 98.734238 -84.129417 28.202269 -19.409683 63.383915 -2.324663 -8.434829 -17.892778 -4.773179 -4.434943 -42.965580 -36.334076 -11.163120 73.891594 1.006732 9.119448 -44.385010 1.444824 -0.149390 
36.589100 41.035378 -57.788002 16.055441 -9.645310 20.297581 58.843384 -3.874214 1.917137 -25.036106 -2.486129 1.401584 -2.759529 11.214659 7.922753 -37.318272 -25.164253 27.551540 -1.931697 -12.150426 0.122601 -52.460876 -9.731795 12.512911 -83.865829 4.031444 25.293465 8.524705 12.647240 -25.599009 4.400109 13.372850 -0.765886 50.698452 11.877171 22.257360 87.528984 -3.407015 33.126350 -8.534408 -12.637552 99.603378 -84.778137 28.222113 -19.513393 64.018448 -2.262219 -8.485576 -18.239567 -3.919759 -4.154128 -42.392056 -36.298092 -11.765248 73.551605 1.074468 9.096253 -44.396694 1.326243 -0.259754 
